<?xml version="1.0" standalone="no"?>
<!DOCTYPE svg PUBLIC "-//W3C//DTD SVG 20010904//EN"
 "http://www.w3.org/TR/2001/REC-SVG-20010904/DTD/svg10.dtd">
<svg version="1.0" xmlns="http://www.w3.org/2000/svg"
 width="500.000000pt" height="500.000000pt" viewBox="0 0 500.000000 500.000000"
 preserveAspectRatio="xMidYMid meet">

<g transform="translate(0.000000,500.000000) scale(0.100000,-0.100000)"
fill="#000000" stroke="none">
<path d="M480 2600 l0 -610 145 0 145 0 0 260 0 260 175 0 175 0 0 -260 0
-260 145 0 145 0 0 610 0 610 -145 0 -145 0 0 -163 0 -163 -172 -146 -173
-146 -3 309 -2 309 -145 0 -145 0 0 -610z"/>
<path d="M3790 2315 l0 -485 120 0 120 0 0 335 0 335 205 0 205 0 0 150 0 150
-325 0 -325 0 0 -485z"/>
<path d="M3222 2567 c-143 -217 -152 -235 -131 -251 8 -6 88 -123 178 -259
158 -239 190 -275 198 -227 2 8 -69 123 -156 255 l-160 240 267 5 c266 5 267
5 267 27 0 19 -100 137 -274 322 -28 30 -51 58 -51 63 0 27 -31 -12 -138 -175z"/>
<path d="M2330 2075 l0 -605 145 0 145 0 0 240 0 240 28 0 c42 0 130 28 172
55 38 24 97 90 120 135 7 13 19 47 26 75 45 168 -30 342 -179 414 -75 36 -172
51 -338 51 l-119 0 0 -605z"/>
<path d="M1500 2634 c0 -14 8 -38 19 -52 10 -15 91 -138 179 -274 l160 -247
-155 -266 c-147 -254 -168 -301 -127 -293 20 4 665 1105 661 1128 -1 8 -10 15
-21 15 -13 0 -59 -71 -171 -263 -84 -145 -155 -265 -157 -267 -2 -2 -84 120
-182 271 -98 151 -184 274 -192 274 -8 0 -14 -10 -14 -26z"/>
</g>
</svg>
